<svg width="32" height="32" viewBox="0 0 32 32" fill="none" xmlns="http://www.w3.org/2000/svg">
<path d="M26 29.3333C27.1045 29.3333 28 28.4378 28 27.3333C28 26.2288 27.1045 25.3333 26 25.3333C24.8955 25.3333 24 26.2288 24 27.3333C24 28.4378 24.8955 29.3333 26 29.3333Z" fill="white" stroke="white" stroke-width="2" stroke-linecap="round" stroke-linejoin="round"/>
<path d="M12.6667 29.3333C13.7712 29.3333 14.6667 28.4378 14.6667 27.3333C14.6667 26.2288 13.7712 25.3333 12.6667 25.3333C11.5621 25.3333 10.6667 26.2288 10.6667 27.3333C10.6667 28.4378 11.5621 29.3333 12.6667 29.3333Z" fill="white" stroke="white" stroke-width="2" stroke-linecap="round" stroke-linejoin="round"/>
<path d="M6.66669 5.33332H29.3334L26.6667 20H9.33335L6.66669 5.33332ZM6.66669 5.33332C6.44446 4.44443 5.33335 2.66666 2.66669 2.66666" stroke="white" stroke-width="2" stroke-linecap="round" stroke-linejoin="round"/>
<path d="M26.6666 20H9.33331H6.97434C4.59526 20 3.33331 21.0416 3.33331 22.6667C3.33331 24.2917 4.59526 25.3333 6.97434 25.3333H26" stroke="white" stroke-width="2" stroke-linecap="round" stroke-linejoin="round"/>
</svg>
