<svg width="32" height="32" viewBox="0 0 32 32" fill="none" xmlns="http://www.w3.org/2000/svg">
<path d="M24.6667 16.0133L24.68 15.9985M7.33335 16.0133L7.34669 15.9985M2.66669 22.6667V9.33332C2.66669 7.86056 3.86059 6.66666 5.33335 6.66666H26.6667C28.1395 6.66666 29.3334 7.86056 29.3334 9.33332V22.6667C29.3334 24.1395 28.1395 25.3333 26.6667 25.3333H5.33335C3.86059 25.3333 2.66669 24.1395 2.66669 22.6667ZM16 20C13.7908 20 12 18.2092 12 16C12 13.7908 13.7908 12 16 12C18.2092 12 20 13.7908 20 16C20 18.2092 18.2092 20 16 20Z" stroke="white" stroke-width="2.66667" stroke-linecap="round" stroke-linejoin="round"/>
</svg>
