<svg width="32" height="32" viewBox="0 0 32 32" fill="none" xmlns="http://www.w3.org/2000/svg">
<path d="M11.9896 17.3333H15.9896H19.9896" stroke="white" stroke-width="2.66667" stroke-linecap="round" stroke-linejoin="round"/>
<path d="M4.05225 5.72522C4.01931 5.47823 4.10546 5.23119 4.30843 5.08667C5.23626 4.42606 8.41893 2.66669 16 2.66669C23.5811 2.66669 26.7637 4.42605 27.6916 5.08667C27.8945 5.23119 27.9807 5.47823 27.9477 5.72522L25.6821 22.7171C25.4624 24.3659 24.4859 25.8176 23.0417 26.6428L22.6152 26.8866C18.5161 29.229 13.4839 29.229 9.38481 26.8866L8.9583 26.6428C7.51413 25.8176 6.53766 24.3659 6.31783 22.7171L4.05225 5.72522Z" stroke="white" stroke-width="2.66667"/>
<path d="M4 6.66669C7.42857 10.2222 24.5715 10.2222 28 6.66669" stroke="white" stroke-width="2.66667"/>
</svg>
