<svg width="32" height="32" viewBox="0 0 32 32" fill="none" xmlns="http://www.w3.org/2000/svg">
<path d="M17.6757 11.1213C17.183 11.6686 17.2273 12.5117 17.7747 13.0043C18.322 13.497 19.165 13.4527 19.6577 12.9054L18.6667 12.0133L17.6757 11.1213ZM19.671 12.8906C20.1637 12.3432 20.1194 11.5002 19.5721 11.0075C19.0248 10.5149 18.1817 10.5592 17.689 11.1065L18.68 11.9985L19.671 12.8906ZM9.67567 9.788C9.18303 10.3353 9.22737 11.1784 9.77469 11.671C10.322 12.1637 11.1651 12.1193 11.6577 11.572L10.6667 10.68L9.67567 9.788ZM11.671 11.5572C12.1637 11.0099 12.1193 10.1668 11.572 9.67417C11.0247 9.18153 10.1816 9.22586 9.68901 9.77318L10.68 10.6652L11.671 11.5572ZM9.67612 17.7875C9.18321 18.3346 9.22712 19.1777 9.7742 19.6706C10.3213 20.1635 11.1644 20.1196 11.6573 19.5725L10.6667 18.68L9.67612 17.7875ZM11.6706 19.5577C12.1635 19.0106 12.1196 18.1675 11.5725 17.6746C11.0254 17.1817 10.1824 17.2256 9.68945 17.7727L10.68 18.6652L11.6706 19.5577ZM2.9817 4.00546L1.68381 4.31084L1.68381 4.31085L2.9817 4.00546ZM3.98617 3.05474L4.36239 1.77559L4.36239 1.77559L3.98617 3.05474ZM29.5974 11.2329L30.8909 11.5563L30.8909 11.5563L29.5974 11.2329ZM27.8996 8.40332L28.223 7.1098L28.223 7.10979L27.8996 8.40332ZM25.07 10.1011L26.3635 10.4245L26.3635 10.4244L25.07 10.1011ZM8.80898 25.0601L9.10876 26.3593L9.10881 26.3593L8.80898 25.0601ZM7.06008 27.8583L8.35927 27.5585L8.35926 27.5584L7.06008 27.8583ZM9.85833 29.6072L10.1581 30.9064L10.1581 30.9064L9.85833 29.6072ZM22.7336 21.9003L23.6764 22.8431L23.6764 22.8431L22.7336 21.9003ZM18.6667 12.0133L19.6577 12.9054L19.671 12.8906L18.68 11.9985L17.689 11.1065L17.6757 11.1213L18.6667 12.0133ZM10.6667 10.68L11.6577 11.572L11.671 11.5572L10.68 10.6652L9.68901 9.77318L9.67567 9.788L10.6667 10.68ZM10.6667 18.68L11.6573 19.5725L11.6706 19.5577L10.68 18.6652L9.68945 17.7727L9.67612 17.7875L10.6667 18.68ZM8.00002 25.3333L9.29791 25.0279L4.27959 3.70008L2.9817 4.00546L1.68381 4.31085L6.70213 25.6387L8.00002 25.3333ZM2.9817 4.00546L4.27959 3.70009C4.37327 4.09824 4.00237 4.44931 3.60995 4.3339L3.98617 3.05474L4.36239 1.77559C2.79274 1.31393 1.30909 2.71823 1.68381 4.31084L2.9817 4.00546ZM3.98617 3.05474L3.60995 4.3339L24.9571 10.6125L25.3334 9.33333L25.7096 8.05418L4.36239 1.77559L3.98617 3.05474ZM29.5974 11.2329L30.8909 11.5563C31.382 9.59168 30.1875 7.60094 28.223 7.1098L27.8996 8.40332L27.5762 9.69684C28.112 9.83078 28.4378 10.3737 28.3038 10.9095L29.5974 11.2329ZM27.8996 8.40332L28.223 7.10979C26.2583 6.61866 24.2676 7.81309 23.7765 9.7777L25.07 10.1011L26.3635 10.4244C26.4975 9.88866 27.0404 9.56288 27.5763 9.69684L27.8996 8.40332ZM25.07 10.1011L23.7765 9.77764C23.3364 11.5379 21.5077 14.6408 18.4909 17.6576L19.4338 18.6004L20.3766 19.5432C23.563 16.3568 25.7586 12.8439 26.3635 10.4245L25.07 10.1011ZM19.4338 18.6004L18.4909 17.6576C15.527 20.6215 11.9425 22.9686 8.50916 23.7609L8.80898 25.0601L9.10881 26.3593C13.1966 25.4159 17.2045 22.7153 20.3766 19.5432L19.4338 18.6004ZM8.80898 25.0601L8.50921 23.7609C6.53601 24.2162 5.30552 26.1849 5.76089 28.1581L7.06008 27.8583L8.35926 27.5584C8.23509 27.0204 8.57062 26.4835 9.10876 26.3593L8.80898 25.0601ZM7.06008 27.8583L5.76088 28.1581C6.21623 30.1314 8.185 31.3617 10.1581 30.9064L9.85833 29.6072L9.55855 28.308C9.02033 28.4322 8.48344 28.0966 8.35927 27.5585L7.06008 27.8583ZM9.85833 29.6072L10.1581 30.9064C15.3918 29.6987 20.1406 26.3788 23.6764 22.8431L22.7336 21.9003L21.7908 20.9574C18.4627 24.2854 14.1373 27.2514 9.55854 28.308L9.85833 29.6072ZM22.7336 21.9003L23.6764 22.8431C27.1594 19.3599 29.9975 15.1294 30.8909 11.5563L29.5974 11.2329L28.3038 10.9095C27.5753 13.8234 25.1043 17.6438 21.7908 20.9575L22.7336 21.9003Z" fill="white"/>
</svg>
