<svg width="32" height="33" viewBox="0 0 32 33" fill="none" xmlns="http://www.w3.org/2000/svg">
<path d="M18.6667 27.825V20.0917C18.6667 19.6498 19.0248 19.2917 19.4667 19.2917H27.2C27.6419 19.2917 28 19.6498 28 20.0917V27.825C28 28.2669 27.6419 28.625 27.2 28.625H19.4667C19.0248 28.625 18.6667 28.2669 18.6667 27.825Z" stroke="white" stroke-width="2.66667"/>
<path d="M4 27.825V20.0917C4 19.6498 4.35817 19.2917 4.8 19.2917H12.5333C12.9752 19.2917 13.3333 19.6498 13.3333 20.0917V27.825C13.3333 28.2669 12.9752 28.625 12.5333 28.625H4.8C4.35817 28.625 4 28.2669 4 27.825Z" stroke="white" stroke-width="2.66667"/>
<path d="M18.6667 13.1583V5.425C18.6667 4.98317 19.0248 4.625 19.4667 4.625H27.2C27.6419 4.625 28 4.98317 28 5.425V13.1583C28 13.6002 27.6419 13.9583 27.2 13.9583H19.4667C19.0248 13.9583 18.6667 13.6002 18.6667 13.1583Z" stroke="white" stroke-width="2.66667"/>
<path d="M4 13.1583V5.425C4 4.98317 4.35817 4.625 4.8 4.625H12.5333C12.9752 4.625 13.3333 4.98317 13.3333 5.425V13.1583C13.3333 13.6002 12.9752 13.9583 12.5333 13.9583H4.8C4.35817 13.9583 4 13.6002 4 13.1583Z" stroke="white" stroke-width="2.66667"/>
</svg>
