<svg width="32" height="32" viewBox="0 0 32 32" fill="none" xmlns="http://www.w3.org/2000/svg">
<path d="M4 21.3333L13.3333 17.3333L28 24M28 4.8V27.2C28 27.6419 27.6419 28 27.2 28H4.8C4.35817 28 4 27.6419 4 27.2V4.8C4 4.35817 4.35817 4 4.8 4H27.2C27.6419 4 28 4.35817 28 4.8ZM21.3333 13.3333C19.8605 13.3333 18.6667 12.1394 18.6667 10.6667C18.6667 9.19391 19.8605 8 21.3333 8C22.8061 8 24 9.19391 24 10.6667C24 12.1394 22.8061 13.3333 21.3333 13.3333Z" stroke="white" stroke-width="2.66667" stroke-linecap="round" stroke-linejoin="round"/>
</svg>
