<svg width="32" height="32" viewBox="0 0 32 32" fill="none" xmlns="http://www.w3.org/2000/svg">
<path d="M16 14.6667H22.6667M16 9.33333H22.6667M10.6667 20V4.8C10.6667 4.35817 11.0248 4 11.4667 4H27.2C27.6419 4 28 4.35817 28 4.8V22.6667C28 25.6121 25.6121 28 22.6667 28M10.6667 20H6.66667C5.19391 20 4 21.1939 4 22.6667V24C4 26.2092 5.79087 28 8 28H22.6667M10.6667 20H16.5333C16.9752 20 17.3375 20.3557 17.3731 20.7961C17.5368 22.8196 18.3749 28 22.6667 28" stroke="white" stroke-width="2.66667" stroke-linecap="round" stroke-linejoin="round"/>
</svg>
