<svg width="32" height="32" viewBox="0 0 32 32" fill="none" xmlns="http://www.w3.org/2000/svg">
<path d="M13.3333 20L13.3333 25.3333C13.3334 26.8061 12.1394 28 10.6667 28H5.33335C3.86059 28 2.66669 26.8061 2.66669 25.3333V20C2.66669 18.5272 3.86059 17.3333 5.33335 17.3333H10.6667C12.1394 17.3333 13.3333 18.5272 13.3333 20Z" stroke="white" stroke-width="2" stroke-linecap="round" stroke-linejoin="round"/>
<path d="M21.3334 6.66665V12C21.3334 13.4728 20.1395 14.6667 18.6667 14.6667H13.3334C11.8606 14.6667 10.6667 13.4728 10.6667 12V6.66667C10.6667 5.19391 11.8606 4 13.3334 4H18.6667C20.1394 4 21.3334 5.19391 21.3334 6.66665Z" stroke="white" stroke-width="2" stroke-linecap="round" stroke-linejoin="round"/>
<path d="M29.3334 20V25.3333C29.3334 26.8061 28.1395 28 26.6667 28H21.3334C19.8606 28 18.6667 26.8061 18.6667 25.3333V20C18.6667 18.5272 19.8606 17.3333 21.3334 17.3333H26.6667C28.1394 17.3333 29.3334 18.5272 29.3334 20Z" stroke="white" stroke-width="2" stroke-linecap="round" stroke-linejoin="round"/>
<path d="M8 21.3333V17.3333" stroke="white" stroke-width="2" stroke-linecap="round" stroke-linejoin="round"/>
<path d="M16 8V4" stroke="white" stroke-width="2" stroke-linecap="round" stroke-linejoin="round"/>
<path d="M24 21.3333V17.3333" stroke="white" stroke-width="2" stroke-linecap="round" stroke-linejoin="round"/>
</svg>
