<svg width="32" height="32" viewBox="0 0 32 32" fill="none" xmlns="http://www.w3.org/2000/svg">
<path d="M11.3333 5.70831H7.99992C6.52716 5.70831 5.33325 6.90222 5.33325 8.37498V27.0416C5.33325 28.5144 6.52716 29.7083 7.99992 29.7083H23.9999C25.4727 29.7083 26.6666 28.5144 26.6666 27.0416V8.37498C26.6666 6.90222 25.4727 5.70831 23.9999 5.70831H20.6666M11.3333 5.70831C10.9651 5.70831 10.6666 6.00679 10.6666 6.37498V8.90831C10.6666 9.35014 11.0248 9.70831 11.4666 9.70831H20.5333C20.9751 9.70831 21.3333 9.35014 21.3333 8.90831V6.37498C21.3333 6.00679 21.0347 5.70831 20.6666 5.70831M11.3333 5.70831C11.7014 5.70831 12.0055 5.4097 12.0686 5.04695C12.2662 3.91059 13.0319 1.70831 15.9999 1.70831C18.9679 1.70831 19.7337 3.91059 19.9313 5.04695C19.9943 5.4097 20.2985 5.70831 20.6666 5.70831" stroke="white" stroke-width="2.66667" stroke-linecap="round"/>
</svg>
