<svg width="32" height="32" viewBox="0 0 32 32" fill="none" xmlns="http://www.w3.org/2000/svg">
<path d="M25.3333 26.6667H6.66667C5.19391 26.6667 4 25.4728 4 24V12C4 10.5273 5.19391 9.33334 6.66667 9.33334H25.3333C26.8061 9.33334 28 10.5273 28 12V24C28 25.4728 26.8061 26.6667 25.3333 26.6667Z" stroke="white" stroke-width="2.667"/>
<path d="M22 18.6667C21.6318 18.6667 21.3333 18.3681 21.3333 18C21.3333 17.6319 21.6318 17.3333 22 17.3333C22.3681 17.3333 22.6666 17.6319 22.6666 18C22.6666 18.3681 22.3681 18.6667 22 18.6667Z" fill="white" stroke="white" stroke-width="2.667" stroke-linecap="round" stroke-linejoin="round"/>
<path d="M24 9.33332V7.47095C24 5.71887 22.3392 4.44288 20.6463 4.89432L5.97956 8.80544C4.81223 9.11673 4 10.1739 4 11.3821V12" stroke="white" stroke-width="2.667"/>
</svg>
