<svg width="32" height="32" viewBox="0 0 32 32" fill="none" xmlns="http://www.w3.org/2000/svg">
<path d="M14.5677 11.2615V4.81539C14.5677 3.6287 15.5297 2.66669 16.7164 2.66669C17.903 2.66669 18.865 3.6287 18.865 4.81539V12.6289L20.6372 6.27659C20.9522 5.14789 22.1257 4.49122 23.2525 4.81314C24.3848 5.13666 25.034 6.32355 24.6956 7.45151L21.7946 17.1214M15.6256 16.3487C15.8985 15.592 15.8664 14.759 15.5357 14.0256L14.1049 10.8517C13.6241 9.78525 12.3682 9.31274 11.3037 9.79783C10.2196 10.2919 9.75844 11.5844 10.2851 12.6532L10.4659 13.0202M18.4754 23.569L19.1316 22.257C19.1968 22.1263 19.1281 21.9684 18.988 21.9272L14.2537 20.5348C13.3047 20.2558 12.6906 19.3384 12.7942 18.3547C12.9116 17.239 13.9045 16.4251 15.0216 16.5291L21.4056 17.123C21.4056 17.123 26.4842 17.9043 24.7262 22.983C22.9682 28.0618 22.3822 29.8198 18.4754 29.8198C15.9361 29.8198 12.2247 29.8198 12.2247 29.8198H11.834C8.70547 29.8198 6.16927 27.2836 6.16927 24.1551L5.97394 13.2162M10.1591 12.3332L11.5665 15.4551C12.0528 16.5338 11.5754 17.8027 10.4987 18.2934C9.41575 18.7868 8.13794 18.3062 7.64882 17.2212L6.24143 14.0994C5.75514 13.0206 6.2325 11.7517 7.30922 11.261C8.39218 10.7675 9.66999 11.2482 10.1591 12.3332Z" stroke="white" stroke-width="2" stroke-linecap="round"/>
</svg>
