<svg width="32" height="32" viewBox="0 0 32 32" fill="none" xmlns="http://www.w3.org/2000/svg">
<path d="M-2.03848e-05 26.6667C-2.03848e-05 27.403 0.596933 28 1.33331 28C2.06969 28 2.66665 27.403 2.66665 26.6667H1.33331H-2.03848e-05ZM18.6666 26.6667C18.6666 27.403 19.2636 28 20 28C20.7364 28 21.3333 27.403 21.3333 26.6667H20H18.6666ZM16 18.6667C16 19.403 16.5969 20 17.3333 20C18.0697 20 18.6666 19.403 18.6666 18.6667H17.3333H16ZM29.3333 19.3333C29.3333 20.0697 29.9303 20.6667 30.6666 20.6667C31.403 20.6667 32 20.0697 32 19.3333H30.6666H29.3333ZM1.33331 26.6667H2.66665V25.3333H1.33331H-2.03848e-05V26.6667H1.33331ZM1.33331 25.3333H2.66665C2.66665 20.915 6.24837 17.3333 10.6666 17.3333V16V14.6667C4.77561 14.6667 -2.03848e-05 19.4423 -2.03848e-05 25.3333H1.33331ZM10.6666 16V17.3333C15.0849 17.3333 18.6666 20.915 18.6666 25.3333H20H21.3333C21.3333 19.4423 16.5577 14.6667 10.6666 14.6667V16ZM20 25.3333H18.6666V26.6667H20H21.3333V25.3333H20ZM17.3333 18.6667H18.6666C18.6666 15.7212 21.0545 13.3333 24 13.3333V12V10.6667C19.5817 10.6667 16 14.2484 16 18.6667H17.3333ZM24 12V13.3333C26.9455 13.3333 29.3333 15.7212 29.3333 18.6667H30.6666H32C32 14.2484 28.4182 10.6667 24 10.6667V12ZM30.6666 18.6667H29.3333V19.3333H30.6666H32V18.6667H30.6666ZM10.6666 16V17.3333C14.3485 17.3333 17.3333 14.3485 17.3333 10.6667H16H14.6666C14.6666 12.8758 12.8757 14.6667 10.6666 14.6667V16ZM16 10.6667H17.3333C17.3333 6.98476 14.3485 4 10.6666 4V5.33333V6.66667C12.8757 6.66667 14.6666 8.45754 14.6666 10.6667H16ZM10.6666 5.33333V4C6.98475 4 3.99998 6.98477 3.99998 10.6667H5.33331H6.66665C6.66665 8.45753 8.45751 6.66667 10.6666 6.66667V5.33333ZM5.33331 10.6667H3.99998C3.99998 14.3485 6.98474 17.3333 10.6666 17.3333V16V14.6667C8.45751 14.6667 6.66665 12.8758 6.66665 10.6667H5.33331ZM24 12V13.3333C26.9456 13.3333 29.3333 10.9455 29.3333 8H28H26.6666C26.6666 9.47277 25.4728 10.6667 24 10.6667V12ZM28 8H29.3333C29.3333 5.0545 26.9456 2.66667 24 2.66667V4V5.33333C25.4728 5.33333 26.6666 6.52723 26.6666 8H28ZM24 4V2.66667C21.0544 2.66667 18.6666 5.0545 18.6666 8H20H21.3333C21.3333 6.52723 22.5272 5.33333 24 5.33333V4ZM20 8H18.6666C18.6666 10.9455 21.0544 13.3333 24 13.3333V12V10.6667C22.5272 10.6667 21.3333 9.47277 21.3333 8H20Z" fill="white"/>
</svg>
