<svg width="32" height="32" viewBox="0 0 32 32" fill="none" xmlns="http://www.w3.org/2000/svg">
<path d="M23.4285 24H27.2C27.6419 24 28 23.6419 28 23.2V14.6667C28 11.7212 25.6121 9.33334 22.6667 9.33334H9.33333C6.38781 9.33334 4 11.7212 4 14.6667V23.2C4 23.6419 4.35817 24 4.8 24H8.57143" stroke="white" stroke-width="2"/>
<path d="M10.6667 9.33333V4.8C10.6667 4.35817 11.0249 4 11.4667 4H20.5334C20.9752 4 21.3334 4.35817 21.3334 4.8V9.33333" stroke="white" stroke-width="2"/>
<path d="M8.13044 27.0868L8.57142 24L9.23521 19.3535C9.29151 18.9595 9.62905 18.6667 10.0272 18.6667H21.9728C22.371 18.6667 22.7084 18.9595 22.7648 19.3535L23.4286 24L23.8695 27.0868C23.9384 27.5688 23.5644 28 23.0776 28H8.92241C8.43557 28 8.06159 27.5688 8.13044 27.0868Z" stroke="white" stroke-width="2"/>
<path d="M22.6667 13.3467L22.68 13.3318" stroke="white" stroke-width="2" stroke-linecap="round" stroke-linejoin="round"/>
</svg>
