<svg width="32" height="32" viewBox="0 0 32 32" fill="none" xmlns="http://www.w3.org/2000/svg">
<path d="M20 16V20M16 4V8M24 16V20M16 24H28M24 28H28M8 16H12M8 8.01481L8.01333 8M16 16.0148L16.0133 16M4 16.0148L4.01333 16M16 12.0148L16.0133 12M16 20.0148L16.0133 20M20 28.0148L20.0133 28M16 28.0148L16.0133 28M28 16.0148L28.0133 16M28 20.0148L28.0133 20M24 8.01481L24.0133 8M8 24.0148L8.01333 24M12 4.8V11.2C12 11.6418 11.6418 12 11.2 12H4.8C4.35817 12 4 11.6418 4 11.2V4.8C4 4.35817 4.35817 4 4.8 4H11.2C11.6418 4 12 4.35817 12 4.8ZM28 4.8V11.2C28 11.6418 27.6419 12 27.2 12H20.8C20.3581 12 20 11.6418 20 11.2V4.8C20 4.35817 20.3581 4 20.8 4H27.2C27.6419 4 28 4.35817 28 4.8ZM12 20.8V27.2C12 27.6419 11.6418 28 11.2 28H4.8C4.35817 28 4 27.6419 4 27.2V20.8C4 20.3581 4.35817 20 4.8 20H11.2C11.6418 20 12 20.3581 12 20.8Z" stroke="white" stroke-width="2.66667" stroke-linecap="round" stroke-linejoin="round"/>
</svg>
