<svg width="32" height="32" viewBox="0 0 32 32" fill="none" xmlns="http://www.w3.org/2000/svg">
<path d="M16 20C18.2092 20 20 18.2092 20 16C20 13.7908 18.2092 12 16 12C13.7908 12 12 13.7908 12 16C12 18.2092 13.7908 20 16 20Z" stroke="white" stroke-width="2.67" stroke-linecap="round" stroke-linejoin="round"/>
<path d="M26.1632 13.8605L24.6996 10.3264L26.6667 8.00001L24 5.33334L21.6863 7.31061L18.0771 5.82633L17.2471 2.66667H14.6414L13.7988 5.86818L10.2726 7.35462L8.00002 5.33334L5.33335 8.00001L7.27118 10.3851L5.83002 13.9284L2.66669 14.6667V17.3333L5.86817 18.2073L7.35435 21.7329L5.33335 24L8.00002 26.6667L10.3882 24.7204L13.8627 26.1497L14.6667 29.3333H17.3334L18.1394 26.1509L21.6735 24.6873C22.2626 25.1084 24 26.6667 24 26.6667L26.6667 24L24.6879 21.6659L26.1519 18.1307L29.3332 17.3029L29.3334 14.6667L26.1632 13.8605Z" stroke="white" stroke-width="2.67" stroke-linecap="round" stroke-linejoin="round"/>
</svg>
