<svg width="32" height="32" viewBox="0 0 32 32" fill="none" xmlns="http://www.w3.org/2000/svg">
<path d="M3.59387 9.58048L15.5939 14.9139L16.4061 13.0862L4.40613 7.75286L3.59387 9.58048ZM17 28.6667V14H15V28.6667H17ZM16.4061 14.9139L28.4061 9.58048L27.5939 7.75286L15.5939 13.0862L16.4061 14.9139Z" fill="white"/>
<path d="M5.33301 9.53281V22.4664L16 27.2076L26.667 22.4664V9.53281L16 4.7916L5.33301 9.53281ZM29.333 22.8131C29.333 23.6032 28.8974 24.3247 28.208 24.6939L28.0664 24.7633L16.8662 29.7408C16.3836 29.9551 15.8412 29.9817 15.3438 29.8209L15.1338 29.7408L3.93359 24.7633C3.16313 24.4209 2.66699 23.6561 2.66699 22.8131V9.18613C2.66716 8.34322 3.16332 7.57925 3.93359 7.23691L15.1338 2.25937L15.3438 2.1793C15.8414 2.01838 16.3835 2.04491 16.8662 2.25937L28.0664 7.23691L28.208 7.30625C28.8972 7.67544 29.3328 8.39617 29.333 9.18613V22.8131Z" fill="white"/>
<path d="M23.333 16.667C23.3328 17.4032 22.7363 18 22 18C21.2637 18 20.6672 17.4032 20.667 16.667V12.2002L9.45801 7.21875C8.78529 6.91959 8.48222 6.13083 8.78125 5.45801C9.08041 4.78529 9.86917 4.48222 10.542 4.78125L22.0664 9.90332L22.208 9.97266C22.8974 10.3419 23.333 11.0634 23.333 11.8535V16.667Z" fill="white"/>
</svg>
