<svg width="32" height="32" viewBox="0 0 32 32" fill="none" xmlns="http://www.w3.org/2000/svg">
<path fill-rule="evenodd" clip-rule="evenodd" d="M16 1.66669C8.08394 1.66669 1.66669 8.08394 1.66669 16C1.66669 23.9162 8.08394 30.3334 16 30.3334C23.9162 30.3334 30.3334 23.9162 30.3334 16C30.3334 8.08394 23.9162 1.66669 16 1.66669ZM10.0406 15.9596C9.65009 15.5691 9.01693 15.5691 8.62639 15.9596C8.23587 16.3502 8.23587 16.9832 8.62639 17.3738L12.6264 21.3738C13.0169 21.7643 13.6502 21.7643 14.0406 21.3738L23.3739 12.0405C23.7644 11.6499 23.7644 11.0168 23.3739 10.6262C22.9834 10.2357 22.3503 10.2357 21.9598 10.6262L13.3335 19.2524L10.0406 15.9596Z" fill="white"/>
</svg>
