<svg width="32" height="32" viewBox="0 0 32 32" fill="none" xmlns="http://www.w3.org/2000/svg">
<path d="M26.6666 23.4764C28.6582 22.6961 30.6666 20.9185 30.6666 17.3333C30.6666 12 26.2222 10.6667 24 10.6667C24 7.99999 24 2.66666 16 2.66666C7.99998 2.66666 7.99998 7.99999 7.99998 10.6667C5.77775 10.6667 1.33331 12 1.33331 17.3333C1.33331 20.9185 3.34169 22.6961 5.33331 23.4764" stroke="white" stroke-width="2" stroke-linecap="round" stroke-linejoin="round"/>
<path d="M10.1075 25.9832L12.4645 28.3403C14.5474 30.4231 17.9242 30.4231 20.007 28.3403L20.4784 27.8688" stroke="white" stroke-width="2" stroke-linecap="round" stroke-linejoin="round"/>
<path d="M10.5788 29.2831L10.1074 25.9832L13.4072 26.4547L10.5788 29.2831Z" stroke="white" stroke-width="2" stroke-linecap="round" stroke-linejoin="round"/>
<path d="M21.7308 22.5355L19.3737 20.1785C17.2909 18.0957 13.914 18.0957 11.8313 20.1785L11.3599 20.6499" stroke="white" stroke-width="2" stroke-linecap="round" stroke-linejoin="round"/>
<path d="M21.2593 19.2357L21.7308 22.5356L18.4309 22.0641L21.2593 19.2357Z" stroke="white" stroke-width="2" stroke-linecap="round" stroke-linejoin="round"/>
</svg>
