<svg width="32" height="32" viewBox="0 0 32 32" fill="none" xmlns="http://www.w3.org/2000/svg">
<path d="M2.66669 14.6667L6.40885 10.4568C7.42095 9.31814 8.87165 8.66669 10.395 8.66669H10.6667" stroke="white" stroke-width="2.66667" stroke-linecap="round" stroke-linejoin="round"/>
<path d="M2.66669 26.0004L10 26L15.3334 22.0004C15.3334 22.0004 16.4122 21.2704 18 20.0001C21.3334 17.3336 18 13.1114 14.6667 15.3329C11.9521 17.142 9.33335 18.6671 9.33335 18.6671" stroke="white" stroke-width="2.66667" stroke-linecap="round" stroke-linejoin="round"/>
<path d="M10.6667 18V9.33335C10.6667 7.86059 11.8606 6.66669 13.3334 6.66669H26.6667C28.1395 6.66669 29.3334 7.86059 29.3334 9.33335V17.3334C29.3334 18.8062 28.1395 20 26.6667 20H18" stroke="white" stroke-width="2.66667"/>
<path d="M20 16C18.5272 16 17.3333 14.8062 17.3333 13.3334C17.3333 11.8606 18.5272 10.6667 20 10.6667C21.4728 10.6667 22.6666 11.8606 22.6666 13.3334C22.6666 14.8062 21.4728 16 20 16Z" stroke="white" stroke-width="2.66667" stroke-linecap="round" stroke-linejoin="round"/>
<path d="M26 13.3467L26.0133 13.3318" stroke="white" stroke-width="2.66667" stroke-linecap="round" stroke-linejoin="round"/>
<path d="M14 13.3467L14.0133 13.3318" stroke="white" stroke-width="2.66667" stroke-linecap="round" stroke-linejoin="round"/>
</svg>
